<svg width="162" height="30" viewBox="0 0 162 30" fill="none" xmlns="http://www.w3.org/2000/svg">
<path d="M8.46094 0V3H7.47656C7.41016 2.91406 7.33398 2.82617 7.24805 2.73633C7.16211 2.64648 7.06641 2.56641 6.96094 2.49609C6.85547 2.42188 6.74023 2.36328 6.61523 2.32031C6.49023 2.27344 6.35547 2.25 6.21094 2.25V6.31055L6.96094 6.45703V9H1.71094V6.45703L2.46094 6.31055V2.25C2.31641 2.25 2.18164 2.27344 2.05664 2.32031C1.93164 2.36328 1.81641 2.42188 1.71094 2.49609C1.60547 2.56641 1.50977 2.64648 1.42383 2.73633C1.33789 2.82617 1.26172 2.91406 1.19531 3H0.210938V0H8.46094ZM13.4648 4.37695L15.0879 4.03125V5.70117L13.4648 5.34961V6.64453C13.6992 6.64453 13.9258 6.62891 14.1445 6.59766C14.3633 6.5625 14.5664 6.51562 14.7539 6.45703C14.9414 6.39844 15.1133 6.33008 15.2695 6.25195C15.4258 6.17383 15.5605 6.08984 15.6738 6H16.4766V9H9.23438V6.66211L9.9375 6.52734V3.20508L9.23438 3.07031V0.75H16.4766V3.75H15.6738C15.5605 3.66406 15.4258 3.58203 15.2695 3.50391C15.1133 3.42578 14.9414 3.35742 14.7539 3.29883C14.5664 3.24023 14.3633 3.19336 14.1445 3.1582C13.9258 3.12305 13.6992 3.10547 13.4648 3.10547V4.37695ZM27.1641 9H23.209L21.6504 5.54297V9H17.4199V6.66211L18.123 6.52734V3.19336L17.4199 3.05859V0.75H21.6504V4.04297L23.209 0.75H27.0059V2.23828C26.7754 2.43359 26.5605 2.63867 26.3613 2.85352C26.166 3.06836 25.9824 3.28516 25.8105 3.50391C25.6387 3.72266 25.4805 3.9375 25.3359 4.14844C25.1914 4.35938 25.0605 4.56055 24.9434 4.75195C25.0957 4.99414 25.2578 5.24805 25.4297 5.51367C25.6016 5.77539 25.7793 6.03906 25.9629 6.30469C26.1504 6.57031 26.3438 6.83203 26.543 7.08984C26.7461 7.34375 26.9531 7.58203 27.1641 7.80469V9ZM30.5977 4.66992V6.52734L31.3066 6.65625V9H27.7793V6.66211L28.4824 6.52734V3.19336L27.7793 3.05859V0.75H32.0098L34.8281 5.19727V3.20508L34.125 3.05859V0.75H37.6465V3.05859L36.9434 3.19336V6.52734L37.6465 6.66211V9H33.416L30.5977 4.66992ZM43.4121 9.10547C42.7246 9.10547 42.0801 9.0332 41.4785 8.88867C40.8809 8.74023 40.3594 8.48828 39.9141 8.13281C39.4727 7.77344 39.123 7.31641 38.8652 6.76172C38.6113 6.20703 38.4844 5.54102 38.4844 4.76367C38.4844 4.00195 38.6113 3.35352 38.8652 2.81836C39.123 2.2793 39.4746 1.8418 39.9199 1.50586C40.3652 1.16602 40.8867 0.917969 41.4844 0.761719C42.082 0.605469 42.7246 0.527344 43.4121 0.527344C44.0957 0.527344 44.7363 0.605469 45.334 0.761719C45.9355 0.917969 46.459 1.16602 46.9043 1.50586C47.3535 1.8418 47.707 2.2793 47.9648 2.81836C48.2227 3.35352 48.3516 4.00195 48.3516 4.76367C48.3516 5.2793 48.293 5.74805 48.1758 6.16992C48.0586 6.58789 47.8926 6.96094 47.6777 7.28906C47.4668 7.61328 47.2109 7.89453 46.9102 8.13281C46.6133 8.36719 46.2812 8.5625 45.9141 8.71875C45.5469 8.87109 45.1523 8.97266 44.7305 9.02344C44.3086 9.07812 43.8691 9.10547 43.4121 9.10547ZM43.4121 3.02344C43.1816 3.02344 42.9863 3.05273 42.8262 3.11133C42.6699 3.16992 42.5391 3.24609 42.4336 3.33984C42.332 3.43359 42.252 3.54102 42.1934 3.66211C42.1348 3.7832 42.0918 3.9082 42.0645 4.03711C42.041 4.16211 42.0254 4.28711 42.0176 4.41211C42.0137 4.5332 42.0117 4.64062 42.0117 4.73438C42.0117 4.82422 42.0137 4.93164 42.0176 5.05664C42.0215 5.17773 42.0352 5.30664 42.0586 5.44336C42.082 5.57617 42.1211 5.70898 42.1758 5.8418C42.2305 5.97461 42.3086 6.09375 42.4102 6.19922C42.5156 6.30469 42.6484 6.39062 42.8086 6.45703C42.9727 6.51953 43.1738 6.55078 43.4121 6.55078C43.6465 6.55078 43.8438 6.51953 44.0039 6.45703C44.168 6.39453 44.3008 6.3125 44.4023 6.21094C44.5078 6.10547 44.5898 5.98828 44.6484 5.85938C44.707 5.73047 44.748 5.60156 44.7715 5.47266C44.7988 5.33984 44.8145 5.21094 44.8184 5.08594C44.8262 4.96094 44.8301 4.85352 44.8301 4.76367C44.8301 4.66992 44.8262 4.5625 44.8184 4.44141C44.8145 4.31641 44.7988 4.18945 44.7715 4.06055C44.748 3.93164 44.707 3.80664 44.6484 3.68555C44.5898 3.56055 44.5078 3.44922 44.4023 3.35156C44.3008 3.25391 44.168 3.17578 44.0039 3.11719C43.8438 3.05469 43.6465 3.02344 43.4121 3.02344ZM53.4141 6.75C53.5781 6.75 53.7344 6.72852 53.8828 6.68555C54.0312 6.63867 54.168 6.58008 54.293 6.50977C54.4219 6.43555 54.5371 6.35547 54.6387 6.26953C54.7441 6.17969 54.8359 6.08984 54.9141 6H55.8926V9H49.1895V6.66211L49.8926 6.52734V3.19336L49.1895 3.05859V0.75H54.123V3.05859L53.4141 3.19336V6.75ZM61.3418 9.10547C60.6543 9.10547 60.0098 9.0332 59.4082 8.88867C58.8105 8.74023 58.2891 8.48828 57.8438 8.13281C57.4023 7.77344 57.0527 7.31641 56.7949 6.76172C56.541 6.20703 56.4141 5.54102 56.4141 4.76367C56.4141 4.00195 56.541 3.35352 56.7949 2.81836C57.0527 2.2793 57.4043 1.8418 57.8496 1.50586C58.2949 1.16602 58.8164 0.917969 59.4141 0.761719C60.0117 0.605469 60.6543 0.527344 61.3418 0.527344C62.0254 0.527344 62.666 0.605469 63.2637 0.761719C63.8652 0.917969 64.3887 1.16602 64.834 1.50586C65.2832 1.8418 65.6367 2.2793 65.8945 2.81836C66.1523 3.35352 66.2812 4.00195 66.2812 4.76367C66.2812 5.2793 66.2227 5.74805 66.1055 6.16992C65.9883 6.58789 65.8223 6.96094 65.6074 7.28906C65.3965 7.61328 65.1406 7.89453 64.8398 8.13281C64.543 8.36719 64.2109 8.5625 63.8438 8.71875C63.4766 8.87109 63.082 8.97266 62.6602 9.02344C62.2383 9.07812 61.7988 9.10547 61.3418 9.10547ZM61.3418 3.02344C61.1113 3.02344 60.916 3.05273 60.7559 3.11133C60.5996 3.16992 60.4688 3.24609 60.3633 3.33984C60.2617 3.43359 60.1816 3.54102 60.123 3.66211C60.0645 3.7832 60.0215 3.9082 59.9941 4.03711C59.9707 4.16211 59.9551 4.28711 59.9473 4.41211C59.9434 4.5332 59.9414 4.64062 59.9414 4.73438C59.9414 4.82422 59.9434 4.93164 59.9473 5.05664C59.9512 5.17773 59.9648 5.30664 59.9883 5.44336C60.0117 5.57617 60.0508 5.70898 60.1055 5.8418C60.1602 5.97461 60.2383 6.09375 60.3398 6.19922C60.4453 6.30469 60.5781 6.39062 60.7383 6.45703C60.9023 6.51953 61.1035 6.55078 61.3418 6.55078C61.5762 6.55078 61.7734 6.51953 61.9336 6.45703C62.0977 6.39453 62.2305 6.3125 62.332 6.21094C62.4375 6.10547 62.5195 5.98828 62.5781 5.85938C62.6367 5.73047 62.6777 5.60156 62.7012 5.47266C62.7285 5.33984 62.7441 5.21094 62.748 5.08594C62.7559 4.96094 62.7598 4.85352 62.7598 4.76367C62.7598 4.66992 62.7559 4.5625 62.748 4.44141C62.7441 4.31641 62.7285 4.18945 62.7012 4.06055C62.6777 3.93164 62.6367 3.80664 62.5781 3.68555C62.5195 3.56055 62.4375 3.44922 62.332 3.35156C62.2305 3.25391 62.0977 3.17578 61.9336 3.11719C61.7734 3.05469 61.5762 3.02344 61.3418 3.02344ZM66.9902 4.76367C66.9902 4.0293 67.1016 3.39648 67.3242 2.86523C67.5469 2.33008 67.8633 1.89062 68.2734 1.54688C68.6836 1.19922 69.1777 0.943359 69.7559 0.779297C70.3379 0.611328 70.9863 0.527344 71.7012 0.527344C72.1348 0.527344 72.5254 0.548828 72.873 0.591797C73.2246 0.634766 73.5391 0.689453 73.8164 0.755859C74.0977 0.822266 74.3438 0.896484 74.5547 0.978516C74.7695 1.05664 74.959 1.13281 75.123 1.20703V3.75586H73.4648C73.375 3.62695 73.2852 3.51562 73.1953 3.42188C73.1094 3.32422 73.0156 3.24609 72.9141 3.1875C72.8125 3.125 72.6992 3.07812 72.5742 3.04688C72.4492 3.01562 72.3027 3 72.1348 3C71.9316 3 71.7324 3.03125 71.5371 3.09375C71.3457 3.15234 71.1738 3.25195 71.0215 3.39258C70.873 3.5293 70.752 3.71094 70.6582 3.9375C70.5684 4.16016 70.5234 4.43555 70.5234 4.76367C70.5234 5.14648 70.5605 5.46094 70.6348 5.70703C70.709 5.94922 70.8164 6.14258 70.957 6.28711C71.0977 6.42773 71.2695 6.52539 71.4727 6.58008C71.6797 6.63477 71.916 6.66211 72.1816 6.66211C72.3223 6.66211 72.4668 6.65234 72.6152 6.63281C72.7676 6.61328 72.9316 6.57617 73.1074 6.52148V5.85352H71.9297V4.41211H75.3574V8.30273C75.0684 8.42383 74.7617 8.53711 74.4375 8.64258C74.1133 8.74805 73.7871 8.83984 73.459 8.91797C73.1348 8.99609 72.8164 9.04688 72.5039 9.07031C72.1914 9.09375 71.9023 9.10547 71.6367 9.10547C70.9844 9.10547 70.375 9.02734 69.8086 8.87109C69.2422 8.71484 68.75 8.45508 68.332 8.0918C67.9141 7.72852 67.5859 7.27148 67.3477 6.7207C67.1094 6.16602 66.9902 5.51367 66.9902 4.76367ZM76.2246 0.75H81.1582V3.05859L80.4551 3.19336V6.52734L81.1582 6.66211V9H76.2246V6.66211L76.9277 6.52734V3.19336L76.2246 3.05859V0.75ZM95.7363 9H92.0098C91.8926 8.77734 91.7715 8.54102 91.6465 8.29102C91.5215 8.04102 91.4004 7.78125 91.2832 7.51172C91.166 7.24219 91.0566 6.96289 90.9551 6.67383C90.8535 6.38477 90.7676 6.08789 90.6973 5.7832H90.4922V9H85.9922V6.45703L86.7422 6.31055V2.68945L85.9922 2.54297V0H91.0957C91.7715 0 92.3555 0.03125 92.8477 0.09375C93.3398 0.15625 93.7578 0.246094 94.1016 0.363281C94.4453 0.476562 94.7227 0.617188 94.9336 0.785156C95.1484 0.949219 95.3145 1.13672 95.4316 1.34766C95.5527 1.55469 95.6328 1.7832 95.6719 2.0332C95.7148 2.2793 95.7363 2.54102 95.7363 2.81836C95.7363 3.09961 95.709 3.35547 95.6543 3.58594C95.6035 3.8125 95.5117 4.02148 95.3789 4.21289C95.2461 4.4043 95.0645 4.58008 94.834 4.74023C94.6035 4.89648 94.3105 5.04492 93.9551 5.18555C94.0293 5.3418 94.1406 5.52539 94.2891 5.73633C94.4375 5.94336 94.5977 6.15625 94.7695 6.375C94.9414 6.58984 95.1133 6.80078 95.2852 7.00781C95.4609 7.21094 95.6113 7.38477 95.7363 7.5293V9ZM90.4922 4.05469C90.7188 4.05469 90.9238 4.04492 91.1074 4.02539C91.2949 4.00586 91.4531 3.96094 91.582 3.89062C91.7148 3.82031 91.8164 3.7168 91.8867 3.58008C91.957 3.44336 91.9922 3.25977 91.9922 3.0293C91.9922 2.80273 91.957 2.62305 91.8867 2.49023C91.8164 2.35352 91.7148 2.24805 91.582 2.17383C91.4531 2.09961 91.2949 2.05078 91.1074 2.02734C90.9238 2.00391 90.7188 1.99219 90.4922 1.99219V4.05469ZM100.969 4.37695L102.592 4.03125V5.70117L100.969 5.34961V6.64453C101.203 6.64453 101.43 6.62891 101.648 6.59766C101.867 6.5625 102.07 6.51562 102.258 6.45703C102.445 6.39844 102.617 6.33008 102.773 6.25195C102.93 6.17383 103.064 6.08984 103.178 6H103.98V9H96.7383V6.66211L97.4414 6.52734V3.20508L96.7383 3.07031V0.75H103.98V3.75H103.178C103.064 3.66406 102.93 3.58203 102.773 3.50391C102.617 3.42578 102.445 3.35742 102.258 3.29883C102.07 3.24023 101.867 3.19336 101.648 3.1582C101.43 3.12305 101.203 3.10547 100.969 3.10547V4.37695ZM114.668 9H110.713L109.154 5.54297V9H104.924V6.66211L105.627 6.52734V3.19336L104.924 3.05859V0.75H109.154V4.04297L110.713 0.75H114.51V2.23828C114.279 2.43359 114.064 2.63867 113.865 2.85352C113.67 3.06836 113.486 3.28516 113.314 3.50391C113.143 3.72266 112.984 3.9375 112.84 4.14844C112.695 4.35938 112.564 4.56055 112.447 4.75195C112.6 4.99414 112.762 5.24805 112.934 5.51367C113.105 5.77539 113.283 6.03906 113.467 6.30469C113.654 6.57031 113.848 6.83203 114.047 7.08984C114.25 7.34375 114.457 7.58203 114.668 7.80469V9ZM121.043 9L120.75 7.61133H118.447L118.154 9H115.02V6.28125L115.699 6.14648L117.322 0.75H121.869L123.504 6.14648L124.178 6.28125V9H121.043ZM118.805 5.75977H120.393L119.596 2.51953L118.805 5.75977ZM126.439 9V6.67383L127.143 6.49805L124.723 3.1875L123.832 3.05859V0.75H128.537V3.05859L127.986 3.1875L129.105 4.88086L130.219 3.1875L129.668 3.05859V0.75H134.367V3.05859L133.482 3.1875L131.062 6.49805L131.771 6.67383V9H126.439ZM140.039 9L139.746 7.61133H137.443L137.15 9H134.016V6.28125L134.695 6.14648L136.318 0.75H140.865L142.5 6.14648L143.174 6.28125V9H140.039ZM137.801 5.75977H139.389L138.592 2.51953L137.801 5.75977ZM151.172 6.4043C151.172 6.76758 151.119 7.08984 151.014 7.37109C150.912 7.64844 150.771 7.89062 150.592 8.09766C150.416 8.30078 150.205 8.4707 149.959 8.60742C149.717 8.74414 149.455 8.85547 149.174 8.94141C148.893 9.02344 148.598 9.07031 148.289 9.08203C147.984 9.09766 147.68 9.10547 147.375 9.10547C146.953 9.10547 146.572 9.0957 146.232 9.07617C145.893 9.05664 145.588 9.01367 145.318 8.94727C145.053 8.88086 144.816 8.80859 144.609 8.73047C144.406 8.64844 144.227 8.56836 144.07 8.49023V6.45703H145.729C145.893 6.71484 146.08 6.9043 146.291 7.02539C146.502 7.14648 146.719 7.20703 146.941 7.20703C147.008 7.20703 147.082 7.20117 147.164 7.18945C147.246 7.17773 147.322 7.14062 147.393 7.07812C147.463 7.01562 147.521 6.91992 147.568 6.79102C147.619 6.6582 147.645 6.47266 147.645 6.23438C147.328 6.20703 147.014 6.16797 146.701 6.11719C146.393 6.0625 146.096 5.99023 145.811 5.90039C145.529 5.81055 145.268 5.69727 145.025 5.56055C144.783 5.41992 144.572 5.25195 144.393 5.05664C144.217 4.85742 144.078 4.625 143.977 4.35938C143.875 4.08984 143.824 3.78125 143.824 3.43359C143.824 3.03516 143.875 2.6875 143.977 2.39062C144.078 2.08984 144.217 1.83203 144.393 1.61719C144.568 1.40234 144.775 1.22461 145.014 1.08398C145.256 0.943359 145.516 0.832031 145.793 0.75C146.07 0.667969 146.359 0.611328 146.66 0.580078C146.961 0.544922 147.262 0.527344 147.562 0.527344C147.988 0.527344 148.369 0.548828 148.705 0.591797C149.045 0.634766 149.348 0.689453 149.613 0.755859C149.883 0.822266 150.119 0.896484 150.322 0.978516C150.529 1.05664 150.713 1.13281 150.873 1.20703V3.25781H149.098C148.949 2.97656 148.779 2.77148 148.588 2.64258C148.396 2.51367 148.201 2.44922 148.002 2.44922C147.936 2.44922 147.859 2.46094 147.773 2.48438C147.688 2.50391 147.607 2.55078 147.533 2.625C147.459 2.69922 147.396 2.80859 147.346 2.95312C147.295 3.09766 147.27 3.29297 147.27 3.53906C147.914 3.5625 148.479 3.63086 148.963 3.74414C149.451 3.85742 149.859 4.02734 150.188 4.25391C150.516 4.47656 150.762 4.76562 150.926 5.12109C151.09 5.47266 151.172 5.90039 151.172 6.4043ZM157.887 9L157.594 7.61133H155.291L154.998 9H151.863V6.28125L152.543 6.14648L154.166 0.75H158.713L160.348 6.14648L161.021 6.28125V9H157.887ZM155.648 5.75977H157.236L156.439 2.51953L155.648 5.75977ZM0.597656 20H5.70117C6.36523 20 6.94141 20.0312 7.42969 20.0938C7.91797 20.1523 8.33398 20.2383 8.67773 20.3516C9.02148 20.4648 9.30078 20.6035 9.51562 20.7676C9.73438 20.9316 9.9043 21.1152 10.0254 21.3184C10.1504 21.5215 10.2344 21.7441 10.2773 21.9863C10.3242 22.2285 10.3477 22.4863 10.3477 22.7598C10.3477 23.041 10.3203 23.3047 10.2656 23.5508C10.2148 23.7969 10.1191 24.0234 9.97852 24.2305C9.83789 24.4336 9.64258 24.6172 9.39258 24.7812C9.14648 24.9453 8.82812 25.084 8.4375 25.1973C8.05078 25.3066 7.58203 25.3926 7.03125 25.4551C6.48438 25.5137 5.83984 25.543 5.09766 25.543V26.3105L5.84766 26.457V29H0.597656V26.457L1.34766 26.3105V22.6895L0.597656 22.543V20ZM5.09766 23.9316C5.32422 23.9316 5.5293 23.9199 5.71289 23.8965C5.90039 23.873 6.05859 23.8242 6.1875 23.75C6.32031 23.6719 6.42188 23.5605 6.49219 23.416C6.5625 23.2715 6.59766 23.0762 6.59766 22.8301C6.59766 22.5918 6.5625 22.4023 6.49219 22.2617C6.42188 22.1172 6.32031 22.0078 6.1875 21.9336C6.05859 21.8594 5.90039 21.8105 5.71289 21.7871C5.5293 21.7637 5.32422 21.752 5.09766 21.752V23.9316ZM15.3047 24.377L16.9277 24.0312V25.7012L15.3047 25.3496V26.6445C15.5391 26.6445 15.7656 26.6289 15.9844 26.5977C16.2031 26.5625 16.4062 26.5156 16.5938 26.457C16.7812 26.3984 16.9531 26.3301 17.1094 26.252C17.2656 26.1738 17.4004 26.0898 17.5137 26H18.3164V29H11.0742V26.6621L11.7773 26.5273V23.2051L11.0742 23.0703V20.75H18.3164V23.75H17.5137C17.4004 23.6641 17.2656 23.582 17.1094 23.5039C16.9531 23.4258 16.7812 23.3574 16.5938 23.2988C16.4062 23.2402 16.2031 23.1934 15.9844 23.1582C15.7656 23.123 15.5391 23.1055 15.3047 23.1055V24.377ZM28.418 29H24.9141C24.8047 28.7969 24.6914 28.582 24.5742 28.3555C24.457 28.125 24.3438 27.8848 24.2344 27.6348C24.125 27.3848 24.0215 27.127 23.9238 26.8613C23.8301 26.5957 23.75 26.3223 23.6836 26.041H23.4902V29H19.2598V26.6621L19.9629 26.5273V23.1934L19.2598 23.0586V20.75H24.0586C24.6953 20.75 25.2441 20.7773 25.7051 20.832C26.1699 20.8867 26.5625 20.9668 26.8828 21.0723C27.207 21.1777 27.4688 21.3066 27.668 21.459C27.8672 21.6074 28.0215 21.7773 28.1309 21.9688C28.2441 22.1562 28.3203 22.3633 28.3594 22.5898C28.3984 22.8164 28.418 23.0566 28.418 23.3105C28.418 23.5684 28.3926 23.8027 28.3418 24.0137C28.2949 24.2246 28.209 24.418 28.084 24.5938C27.959 24.7695 27.7871 24.9316 27.5684 25.0801C27.3535 25.2246 27.0781 25.3613 26.7422 25.4902C26.8125 25.6309 26.916 25.7988 27.0527 25.9941C27.1934 26.1855 27.3457 26.3828 27.5098 26.5859C27.6738 26.7852 27.8359 26.9785 27.9961 27.166C28.1602 27.3535 28.3008 27.5137 28.418 27.6465V29ZM23.4902 24.4531C23.7051 24.4531 23.8984 24.4434 24.0703 24.4238C24.2461 24.4004 24.3945 24.3535 24.5156 24.2832C24.6406 24.209 24.7363 24.1016 24.8027 23.9609C24.8691 23.8203 24.9023 23.6309 24.9023 23.3926C24.9023 23.1582 24.8691 22.9707 24.8027 22.8301C24.7363 22.6895 24.6406 22.582 24.5156 22.5078C24.3945 22.4297 24.2461 22.3789 24.0703 22.3555C23.8984 22.332 23.7051 22.3203 23.4902 22.3203V24.4531ZM35.168 29L34.875 27.6113H32.5723L32.2793 29H29.1445V26.2812L29.8242 26.1465L31.4473 20.75H35.9941L37.6289 26.1465L38.3027 26.2812V29H35.168ZM32.9297 25.7598H34.5176L33.7207 22.5195L32.9297 25.7598ZM42 24.6699V26.5273L42.709 26.6562V29H39.1816V26.6621L39.8848 26.5273V23.1934L39.1816 23.0586V20.75H43.4121L46.2305 25.1973V23.2051L45.5273 23.0586V20.75H49.0488V23.0586L48.3457 23.1934V26.5273L49.0488 26.6621V29H44.8184L42 24.6699ZM49.8926 24.7637C49.8926 24.0293 50.0039 23.3965 50.2266 22.8652C50.4492 22.3301 50.7656 21.8906 51.1758 21.5469C51.5859 21.1992 52.0801 20.9434 52.6582 20.7793C53.2402 20.6113 53.8887 20.5273 54.6035 20.5273C55.0371 20.5273 55.4277 20.5488 55.7754 20.5918C56.127 20.6348 56.4414 20.6895 56.7188 20.7559C57 20.8223 57.2461 20.8965 57.457 20.9785C57.6719 21.0566 57.8613 21.1328 58.0254 21.207V23.7559H56.3672C56.2773 23.627 56.1875 23.5156 56.0977 23.4219C56.0117 23.3242 55.918 23.2461 55.8164 23.1875C55.7148 23.125 55.6016 23.0781 55.4766 23.0469C55.3516 23.0156 55.2051 23 55.0371 23C54.834 23 54.6348 23.0312 54.4395 23.0938C54.248 23.1523 54.0762 23.252 53.9238 23.3926C53.7754 23.5293 53.6543 23.7109 53.5605 23.9375C53.4707 24.1602 53.4258 24.4355 53.4258 24.7637C53.4258 25.1465 53.4629 25.4609 53.5371 25.707C53.6113 25.9492 53.7188 26.1426 53.8594 26.2871C54 26.4277 54.1719 26.5254 54.375 26.5801C54.582 26.6348 54.8184 26.6621 55.084 26.6621C55.2246 26.6621 55.3691 26.6523 55.5176 26.6328C55.6699 26.6133 55.834 26.5762 56.0098 26.5215V25.8535H54.832V24.4121H58.2598V28.3027C57.9707 28.4238 57.6641 28.5371 57.3398 28.6426C57.0156 28.748 56.6895 28.8398 56.3613 28.918C56.0371 28.9961 55.7188 29.0469 55.4062 29.0703C55.0938 29.0938 54.8047 29.1055 54.5391 29.1055C53.8867 29.1055 53.2773 29.0273 52.7109 28.8711C52.1445 28.7148 51.6523 28.4551 51.2344 28.0918C50.8164 27.7285 50.4883 27.2715 50.25 26.7207C50.0117 26.166 49.8926 25.5137 49.8926 24.7637ZM68.8711 29H64.916L63.3574 25.543V29H59.127V26.6621L59.8301 26.5273V23.1934L59.127 23.0586V20.75H63.3574V24.043L64.916 20.75H68.7129V22.2383C68.4824 22.4336 68.2676 22.6387 68.0684 22.8535C67.873 23.0684 67.6895 23.2852 67.5176 23.5039C67.3457 23.7227 67.1875 23.9375 67.043 24.1484C66.8984 24.3594 66.7676 24.5605 66.6504 24.752C66.8027 24.9941 66.9648 25.248 67.1367 25.5137C67.3086 25.7754 67.4863 26.0391 67.6699 26.3047C67.8574 26.5703 68.0508 26.832 68.25 27.0898C68.4531 27.3438 68.6602 27.582 68.8711 27.8047V29ZM75.2461 29L74.9531 27.6113H72.6504L72.3574 29H69.2227V26.2812L69.9023 26.1465L71.5254 20.75H76.0723L77.707 26.1465L78.3809 26.2812V29H75.2461ZM73.0078 25.7598H74.5957L73.7988 22.5195L73.0078 25.7598ZM80.6543 22.9297C80.4512 22.9297 80.2715 22.957 80.1152 23.0117C79.959 23.0664 79.8281 23.1348 79.7227 23.2168C79.6172 23.2988 79.5371 23.3887 79.4824 23.4863C79.4277 23.5801 79.4004 23.668 79.4004 23.75H78.4219V20.75H86.4141V23.75H85.4355C85.4355 23.668 85.4082 23.5801 85.3535 23.4863C85.2988 23.3887 85.2188 23.2988 85.1133 23.2168C85.0078 23.1348 84.877 23.0664 84.7207 23.0117C84.5645 22.957 84.3848 22.9297 84.1816 22.9297V26.5273L84.8848 26.6621V29H79.9512V26.6621L80.6543 26.5273V22.9297ZM95.4141 26.75C95.6016 26.75 95.7773 26.7285 95.9414 26.6855C96.1055 26.6387 96.2578 26.5801 96.3984 26.5098C96.5391 26.4395 96.666 26.3594 96.7793 26.2695C96.8965 26.1797 96.998 26.0898 97.084 26H98.0625V29H90.9141V26.457L91.6641 26.3105V22.6895L90.9141 22.543V20H96.1641V22.543L95.4141 22.6895V26.75ZM107.566 23.1934C107.562 23.3105 107.561 23.4258 107.561 23.5391C107.561 23.6484 107.561 23.7539 107.561 23.8555V24.7637C107.561 25.5449 107.453 26.2148 107.238 26.7734C107.023 27.3281 106.732 27.7832 106.365 28.1387C105.998 28.4941 105.566 28.7441 105.07 28.8887C104.578 29.0332 104.055 29.1055 103.5 29.1055C102.859 29.1055 102.26 29.0332 101.701 28.8887C101.146 28.7441 100.662 28.4941 100.248 28.1387C99.8379 27.7793 99.5137 27.3223 99.2754 26.7676C99.041 26.2129 98.9238 25.5449 98.9238 24.7637V23.1934L98.2207 23.0586V20.75H102.797V23.0586L102.094 23.1934V23.8906C102.094 23.9844 102.094 24.0801 102.094 24.1777C102.094 24.2715 102.094 24.3594 102.094 24.4414C102.098 24.5234 102.1 24.5957 102.1 24.6582C102.1 24.7168 102.1 24.7559 102.1 24.7754C102.1 24.8652 102.102 24.9707 102.105 25.0918C102.109 25.209 102.125 25.332 102.152 25.4609C102.18 25.5859 102.221 25.7109 102.275 25.8359C102.334 25.957 102.414 26.0664 102.516 26.1641C102.621 26.2617 102.752 26.3418 102.908 26.4043C103.068 26.4629 103.266 26.4922 103.5 26.4922C103.734 26.4922 103.932 26.4629 104.092 26.4043C104.256 26.3418 104.389 26.2617 104.49 26.1641C104.596 26.0625 104.678 25.9492 104.736 25.8242C104.795 25.6992 104.836 25.5742 104.859 25.4492C104.887 25.3203 104.902 25.1973 104.906 25.0801C104.914 24.959 104.918 24.8535 104.918 24.7637C104.918 24.7363 104.918 24.6934 104.918 24.6348C104.918 24.5723 104.916 24.502 104.912 24.4238C104.912 24.3418 104.912 24.2559 104.912 24.166C104.912 24.0723 104.912 23.9805 104.912 23.8906V23.1934L104.209 23.0586V20.75H108.275V23.0586L107.566 23.1934ZM112.008 24.6699V26.5273L112.717 26.6562V29H109.189V26.6621L109.893 26.5273V23.1934L109.189 23.0586V20.75H113.42L116.238 25.1973V23.2051L115.535 23.0586V20.75H119.057V23.0586L118.354 23.1934V26.5273L119.057 26.6621V29H114.826L112.008 24.6699ZM125.953 29L125.66 27.6113H123.357L123.064 29H119.93V26.2812L120.609 26.1465L122.232 20.75H126.779L128.414 26.1465L129.088 26.2812V29H125.953ZM123.715 25.7598H125.303L124.506 22.5195L123.715 25.7598ZM139.711 29H135.756L134.197 25.543V29H129.967V26.6621L130.67 26.5273V23.1934L129.967 23.0586V20.75H134.197V24.043L135.756 20.75H139.553V22.2383C139.322 22.4336 139.107 22.6387 138.908 22.8535C138.713 23.0684 138.529 23.2852 138.357 23.5039C138.186 23.7227 138.027 23.9375 137.883 24.1484C137.738 24.3594 137.607 24.5605 137.49 24.752C137.643 24.9941 137.805 25.248 137.977 25.5137C138.148 25.7754 138.326 26.0391 138.51 26.3047C138.697 26.5703 138.891 26.832 139.09 27.0898C139.293 27.3438 139.5 27.582 139.711 27.8047V29Z" fill="black"/>
</svg>
