<svg width="38" height="9" viewBox="0 0 38 9" fill="none" xmlns="http://www.w3.org/2000/svg">
<path d="M8.46094 0V3H7.47656C7.41016 2.91406 7.33398 2.82617 7.24805 2.73633C7.16211 2.64648 7.06641 2.56641 6.96094 2.49609C6.85547 2.42188 6.74023 2.36328 6.61523 2.32031C6.49023 2.27344 6.35547 2.25 6.21094 2.25V6.31055L6.96094 6.45703V9H1.71094V6.45703L2.46094 6.31055V2.25C2.31641 2.25 2.18164 2.27344 2.05664 2.32031C1.93164 2.36328 1.81641 2.42188 1.71094 2.49609C1.60547 2.56641 1.50977 2.64648 1.42383 2.73633C1.33789 2.82617 1.26172 2.91406 1.19531 3H0.210938V0H8.46094ZM19.0137 9H15.2871C15.1699 8.77734 15.0488 8.54102 14.9238 8.29102C14.7988 8.04102 14.6777 7.78125 14.5605 7.51172C14.4434 7.24219 14.334 6.96289 14.2324 6.67383C14.1309 6.38477 14.0449 6.08789 13.9746 5.7832H13.7695V9H9.26953V6.45703L10.0195 6.31055V2.68945L9.26953 2.54297V0H14.373C15.0488 0 15.6328 0.03125 16.125 0.09375C16.6172 0.15625 17.0352 0.246094 17.3789 0.363281C17.7227 0.476562 18 0.617188 18.2109 0.785156C18.4258 0.949219 18.5918 1.13672 18.709 1.34766C18.8301 1.55469 18.9102 1.7832 18.9492 2.0332C18.9922 2.2793 19.0137 2.54102 19.0137 2.81836C19.0137 3.09961 18.9863 3.35547 18.9316 3.58594C18.8809 3.8125 18.7891 4.02148 18.6562 4.21289C18.5234 4.4043 18.3418 4.58008 18.1113 4.74023C17.8809 4.89648 17.5879 5.04492 17.2324 5.18555C17.3066 5.3418 17.418 5.52539 17.5664 5.73633C17.7148 5.94336 17.875 6.15625 18.0469 6.375C18.2188 6.58984 18.3906 6.80078 18.5625 7.00781C18.7383 7.21094 18.8887 7.38477 19.0137 7.5293V9ZM13.7695 4.05469C13.9961 4.05469 14.2012 4.04492 14.3848 4.02539C14.5723 4.00586 14.7305 3.96094 14.8594 3.89062C14.9922 3.82031 15.0938 3.7168 15.1641 3.58008C15.2344 3.44336 15.2695 3.25977 15.2695 3.0293C15.2695 2.80273 15.2344 2.62305 15.1641 2.49023C15.0938 2.35352 14.9922 2.24805 14.8594 2.17383C14.7305 2.09961 14.5723 2.05078 14.3848 2.02734C14.2012 2.00391 13.9961 1.99219 13.7695 1.99219V4.05469ZM20.0508 0H25.1543C25.8184 0 26.3945 0.03125 26.8828 0.09375C27.3711 0.152344 27.7871 0.238281 28.1309 0.351562C28.4746 0.464844 28.7539 0.603516 28.9688 0.767578C29.1875 0.931641 29.3574 1.11523 29.4785 1.31836C29.6035 1.52148 29.6875 1.74414 29.7305 1.98633C29.7773 2.22852 29.8008 2.48633 29.8008 2.75977C29.8008 3.04102 29.7734 3.30469 29.7188 3.55078C29.668 3.79688 29.5723 4.02344 29.4316 4.23047C29.291 4.43359 29.0957 4.61719 28.8457 4.78125C28.5996 4.94531 28.2812 5.08398 27.8906 5.19727C27.5039 5.30664 27.0352 5.39258 26.4844 5.45508C25.9375 5.51367 25.293 5.54297 24.5508 5.54297V6.31055L25.3008 6.45703V9H20.0508V6.45703L20.8008 6.31055V2.68945L20.0508 2.54297V0ZM24.5508 3.93164C24.7773 3.93164 24.9824 3.91992 25.166 3.89648C25.3535 3.87305 25.5117 3.82422 25.6406 3.75C25.7734 3.67188 25.875 3.56055 25.9453 3.41602C26.0156 3.27148 26.0508 3.07617 26.0508 2.83008C26.0508 2.5918 26.0156 2.40234 25.9453 2.26172C25.875 2.11719 25.7734 2.00781 25.6406 1.93359C25.5117 1.85938 25.3535 1.81055 25.166 1.78711C24.9824 1.76367 24.7773 1.75195 24.5508 1.75195V3.93164ZM35.0625 6.75C35.25 6.75 35.4258 6.72852 35.5898 6.68555C35.7539 6.63867 35.9062 6.58008 36.0469 6.50977C36.1875 6.43945 36.3145 6.35938 36.4277 6.26953C36.5449 6.17969 36.6465 6.08984 36.7324 6H37.7109V9H30.5625V6.45703L31.3125 6.31055V2.68945L30.5625 2.54297V0H35.8125V2.54297L35.0625 2.68945V6.75Z" fill="black"/>
</svg>
